<?xml version="1.0" encoding="UTF-8" standalone="no"?>
<svg
   xmlns:dc="http://purl.org/dc/elements/1.1/"
   xmlns:cc="http://creativecommons.org/ns#"
   xmlns:rdf="http://www.w3.org/1999/02/22-rdf-syntax-ns#"
   xmlns:svg="http://www.w3.org/2000/svg"
   xmlns="http://www.w3.org/2000/svg"
   xmlns:sodipodi="http://sodipodi.sourceforge.net/DTD/sodipodi-0.dtd"
   xmlns:inkscape="http://www.inkscape.org/namespaces/inkscape"
   version="1.1"
   id="svg1202"
   xml:space="preserve"
   width="1365.3333"
   height="1365.72"
   viewBox="0 0 1365.3333 1365.72"
   sodipodi:docname="splash.svg"
   inkscape:export-filename="Default@2x~universal~anyany.png"
   inkscape:export-xdpi="192.09"
   inkscape:export-ydpi="192.09"
   inkscape:version="1.0.2 (e86c8708, 2021-01-15)"><metadata
     id="metadata1208"><rdf:RDF><cc:Work
         rdf:about=""><dc:format>image/svg+xml</dc:format><dc:type
           rdf:resource="http://purl.org/dc/dcmitype/StillImage" /><dc:title></dc:title></cc:Work></rdf:RDF></metadata><defs
     id="defs1206"><clipPath
       clipPathUnits="userSpaceOnUse"
       id="clipPath1220"><path
         d="M 0,88.613 H 1024 V 973.289 H 0 Z"
         id="path1218" /></clipPath></defs><sodipodi:namedview
     pagecolor="#ffffff"
     bordercolor="#666666"
     borderopacity="1"
     objecttolerance="10"
     gridtolerance="10"
     guidetolerance="10"
     inkscape:pageopacity="0"
     inkscape:pageshadow="2"
     inkscape:window-width="1746"
     inkscape:window-height="1278"
     id="namedview1204"
     showgrid="false"
     inkscape:zoom="0.48838709"
     inkscape:cx="682.66663"
     inkscape:cy="682.85999"
     inkscape:window-x="0"
     inkscape:window-y="25"
     inkscape:window-maximized="0"
     inkscape:current-layer="g1210" /><g
     id="g1210"
     inkscape:groupmode="layer"
     inkscape:label="checkin_feature_android"
     transform="matrix(1.3333333,0,0,-1.3333333,0,1365.72)"><path
       d="M 0,0 H 1024 V 1024.288 H 0 Z"
       style="fill:#002939;fill-opacity:1;fill-rule:nonzero;stroke:none"
       id="path1212" /><g
       id="g1214"><g
         id="g1216"
         clip-path="url(#clipPath1220)"><g
           id="g1222"
           transform="translate(620.3574,456.3477)"><path
             d="m 0,0 c -17.57,0 -34.09,5.697 -47.771,16.473 -3.133,2.47 -3.674,7.013 -1.206,10.148 2.469,3.133 7.01,3.674 10.147,1.203 11.105,-8.752 24.533,-13.373 38.83,-13.373 34.762,0 63.041,28.279 63.041,63.043 0,34.76 -28.279,63.041 -63.041,63.041 -14.158,0 -27.529,-4.58 -38.672,-13.246 -3.146,-2.451 -7.683,-1.883 -10.135,1.268 -2.451,3.148 -1.881,7.685 1.268,10.134 13.699,10.661 30.141,16.293 47.539,16.293 42.727,0 77.49,-34.761 77.49,-77.49 C 77.49,34.766 42.727,0 0,0"
             style="fill:#ffffff;fill-opacity:1;fill-rule:nonzero;stroke:none"
             id="path1224" /></g><g
           id="g1226"
           transform="translate(502.9648,561.0879)"><path
             d="m 0,0 c 0,4.072 3.113,7.307 7.186,7.307 4.074,0 7.306,-3.235 7.306,-7.307 v -55.34 c 0,-4.072 -3.232,-7.189 -7.306,-7.189 -3.952,0 -7.186,3.117 -7.186,7.189 z"
             style="fill:#ffffff;fill-opacity:1;fill-rule:nonzero;stroke:none"
             id="path1228" /></g><g
           id="g1230"
           transform="translate(318.4185,561.002)"><path
             d="m 0,0 c 0,4.074 3.114,7.307 7.188,7.307 4.072,0 7.306,-3.233 7.306,-7.307 v -55.34 c 0,-4.072 -3.234,-7.185 -7.306,-7.185 -3.955,0 -7.188,3.113 -7.188,7.185 z"
             style="fill:#ffffff;fill-opacity:1;fill-rule:nonzero;stroke:none"
             id="path1232" /></g><g
           id="g1234"
           transform="translate(620.2422,568.3945)"><path
             d="m 0,0 c -9.594,0 -18.033,-2.992 -24.215,-8.539 -6.676,-5.967 -10.723,-14.897 -10.75,-26.281 v -0.002 c 0,-10.725 -9.205,-20.662 -20.519,-20.662 -4.334,0 -8.35,1.341 -11.674,3.652 -5.346,3.701 -8.844,9.885 -8.844,16.865 0,11.313 9.205,20.516 20.518,20.516 3.367,0 6.56,-0.779 9.507,-2.326 3.541,-1.864 7.905,-0.506 9.754,3.033 1.071,2.023 1.071,4.322 0.231,6.258 h -0.014 c -0.621,1.443 -1.748,2.701 -3.25,3.494 -4.973,2.617 -10.578,3.988 -16.228,3.988 -19.274,0 -34.965,-15.689 -34.965,-34.963 0,-11.156 5.26,-21.125 13.437,-27.527 5.938,-4.666 13.408,-7.442 21.528,-7.442 11.3,0 21.339,5.403 27.742,13.729 4.508,5.861 7.187,12.662 7.219,21.242 h 0.005 v 0.145 c 0.03,4.232 1.489,8.537 4.104,12.091 3.539,4.827 9.248,8.28 16.414,8.28 11.314,0 20.518,-9.201 20.518,-20.516 0,-11.314 -9.204,-20.517 -20.518,-20.517 -6.705,0 -12.688,3.236 -16.428,8.236 -1.56,-4.957 -4.031,-9.494 -7.211,-13.44 6.213,-5.75 14.522,-9.246 23.639,-9.246 19.275,0 34.965,15.69 34.965,34.967 C 34.965,-15.689 19.275,0 0,0"
             style="fill:#ffffff;fill-opacity:1;fill-rule:nonzero;stroke:none"
             id="path1236" /></g><g
           id="g1238"
           transform="translate(454.2188,512.875)"><path
             d="m 0,0 c -11.313,0 -20.518,9.205 -20.518,20.518 0,11.312 9.205,20.515 20.518,20.515 11.012,0 20,-8.724 20.471,-19.623 v -0.285 c 0,-0.102 0.027,-0.197 0.031,-0.299 0,-0.103 0.014,-0.205 0.014,-0.308 C 20.516,9.205 11.313,0 0,0 m 34.965,70.059 c 0,4.072 -3.233,7.306 -7.305,7.306 -4.074,0 -7.189,-3.234 -7.189,-7.306 V 48.84 C 14.711,53.014 7.643,55.482 0,55.482 c -19.281,0 -34.966,-15.683 -34.966,-34.964 0,-19.282 15.685,-34.967 34.966,-34.967 19.281,0 34.965,15.685 34.965,34.967 0,0.164 -0.01,0.32 -0.01,0.484 0,0.041 0.01,0.08 0.01,0.123 z"
             style="fill:#ffffff;fill-opacity:1;fill-rule:nonzero;stroke:none"
             id="path1240" /></g><g
           id="g1242"
           transform="translate(406.8315,540.4844)"><path
             d="m 0,0 c -1.1,15.287 -13.611,27.395 -29.058,27.887 -0.014,0.013 -0.043,0.013 -0.072,0 -0.289,0.029 -0.592,0.029 -0.91,0.029 -0.289,0 -0.578,0 -0.853,-0.029 -15.517,-0.42 -28.117,-12.586 -29.171,-27.959 -0.043,-0.332 -0.086,-0.701 -0.073,-1.049 V -34.75 c 0,-4.074 3.238,-7.18 7.196,-7.18 4.075,0 7.295,3.106 7.295,7.18 v 33.666 c 0,0.059 0,0.102 -0.013,0.16 0.65,8.047 7.412,14.391 15.619,14.391 8.25,0 15.042,-6.387 15.635,-14.492 0,-0.014 0.013,-0.032 0,-0.059 V -34.75 c 0,-4.074 3.221,-7.18 7.18,-7.18 4.073,0 7.31,3.106 7.31,7.18 V -1.084 C 0.085,-0.709 0.057,-0.348 0,0"
             style="fill:#ffffff;fill-opacity:1;fill-rule:nonzero;stroke:none"
             id="path1244" /></g></g></g><text
       transform="matrix(1,0,0,-1,314.8491,444.0508)"
       style="font-variant:normal;font-weight:normal;font-stretch:normal;font-size:56.3499px;font-family:'Maven Pro';-inkscape-font-specification:MavenProRegular;writing-mode:lr-tb;fill:#00a4e4;fill-opacity:1;fill-rule:nonzero;stroke:none"
       id="text1248"><tspan
         x="0 26.090004 57.871346 88.582047 114.33395 145.27003 171.4164 185.33482"
         y="0"
         sodipodi:role="line"
         id="tspan1246">check-in</tspan></text></g></svg>
